<?xml version="1.0" encoding="UTF-8" standalone="no"?>
<svg
   width="54.006145mm"
   height="53.994942mm"
   viewBox="0 0 54.006145 53.994942"
   version="1.1"
   id="svg1876"
   inkscape:version="1.2.2 (b0a8486541, 2022-12-01)"
   sodipodi:docname="teste me.svg"
   xmlns:inkscape="http://www.inkscape.org/namespaces/inkscape"
   xmlns:sodipodi="http://sodipodi.sourceforge.net/DTD/sodipodi-0.dtd"
   xmlns="http://www.w3.org/2000/svg"
   xmlns:svg="http://www.w3.org/2000/svg"
   xmlns:rdf="http://www.w3.org/1999/02/22-rdf-syntax-ns#"
   xmlns:cc="http://creativecommons.org/ns#"
   xmlns:dc="http://purl.org/dc/elements/1.1/">
  <defs
     id="defs1870">
    <inkscape:path-effect
       effect="envelope"
       id="path-effect1798"
       is_visible="true"
       lpeversion="1"
       yy="true"
       xx="true"
       bendpath1="m 105.66154,187.81607 c 0,0 6.72648,-0.24655 10.27274,-0.26328 3.54626,-0.0167 10.95373,0.17686 10.95373,0.17686"
       bendpath2="m 128.59813,187.80587 v 7.49305"
       bendpath3="m 103.62669,195.29892 12.1406,0.22326 11.62458,-0.11852"
       bendpath4="m 101.9089,187.80587 v 7.49305"
       bendpath1-nodetypes="czc"
       bendpath3-nodetypes="ccc" />
  </defs>
  <sodipodi:namedview
     id="base"
     pagecolor="#ffffff"
     bordercolor="#666666"
     borderopacity="1.0"
     inkscape:pageopacity="0.0"
     inkscape:pageshadow="2"
     inkscape:zoom="2.8"
     inkscape:cx="13.75"
     inkscape:cy="88.214285"
     inkscape:document-units="mm"
     inkscape:current-layer="layer1"
     inkscape:document-rotation="0"
     showgrid="false"
     inkscape:window-width="2560"
     inkscape:window-height="1011"
     inkscape:window-x="0"
     inkscape:window-y="0"
     inkscape:window-maximized="1"
     inkscape:showpageshadow="0"
     inkscape:pagecheckerboard="0"
     inkscape:deskcolor="#d1d1d1"
     inkscape:lockguides="true" />
  <metadata
     id="metadata1873">
    <rdf:RDF>
      <cc:Work
         rdf:about="">
        <dc:format>image/svg+xml</dc:format>
        <dc:type
           rdf:resource="http://purl.org/dc/dcmitype/StillImage" />
      </cc:Work>
    </rdf:RDF>
  </metadata>
  <g
     inkscape:label="Layer 1"
     inkscape:groupmode="layer"
     id="layer1"
     transform="translate(-69.779273,-123.38569)">
    <path
       style="fill:#1a1a1a;stroke:none;stroke-width:0.394082px;stroke-linecap:butt;stroke-linejoin:miter;stroke-opacity:1"
       d="m 94.49701,142.56971 7.09795,-2.91737 13.38599,2.22893 0.19426,-0.0161 1.9132,-2.5198 6.60722,0.5199 -7.45304,5.70164 z"
       id="path1780"
       sodipodi:nodetypes="cccccccc"
       inkscape:export-xdpi="94.074028"
       inkscape:export-ydpi="94.074028" />
    <path
       style="fill:#000000;stroke:none;stroke-width:0.394082px;stroke-linecap:butt;stroke-linejoin:miter;stroke-opacity:1"
       d="m 94.478813,142.64106 0.169373,5.89911 21.894274,4.36184 -0.31805,-7.26372 z"
       id="path1782"
       inkscape:export-xdpi="94.074028"
       inkscape:export-ydpi="94.074028" />
    <path
       style="fill:#000000;stroke:none;stroke-width:0.394082px;stroke-linecap:butt;stroke-linejoin:miter;stroke-opacity:1"
       d="m 116.32585,145.61852 0.31805,7.26372 7.12427,-6.72557 0.0111,-6.23977 z"
       id="path1784"
       sodipodi:nodetypes="ccccc"
       inkscape:export-xdpi="94.074028"
       inkscape:export-ydpi="94.074028" />
    <rect
       style="fill:#0000ff;fill-opacity:1;stroke:none;stroke-width:2.04296;stroke-opacity:1"
       id="rect1786"
       width="16.408283"
       height="15.39818"
       x="98.245865"
       y="124.89728"
       inkscape:export-xdpi="94.074028"
       inkscape:export-ydpi="94.074028" />
    <g
       aria-label="MOXK"
       id="g1796"
       style="font-style:normal;font-weight:normal;font-size:10.5833px;line-height:1.25;font-family:sans-serif;letter-spacing:-1.41817px;fill:#ffffff;fill-opacity:1;stroke:none;stroke-width:0.264583"
       transform="matrix(0.46944377,0,0,1.5289923,52.253152,-160.11201)"
       inkscape:path-effect="#path-effect1798"
       inkscape:export-xdpi="94.074028"
       inkscape:export-ydpi="94.074028"
       class="UnoptimicedTransforms" />
    <text
       xml:space="preserve"
       style="font-size:9.11415px;fill:#ffffff;stroke-width:0.759512"
       x="214.16241"
       y="64.504623"
       id="text253"
       transform="matrix(0.47521044,0.01598927,-0.05025761,2.1026399,0,0)"><tspan
         sodipodi:role="line"
         id="tspan251"
         style="font-style:normal;font-variant:normal;font-weight:bold;font-stretch:normal;font-family:sans-serif;-inkscape-font-specification:'sans-serif Bold';stroke-width:0.759512"
         x="214.16241"
         y="64.504623">MOSCA</tspan></text>
    <path
       id="path1800"
       style="fill:#000000;stroke:none;stroke-width:0.394082px;stroke-linecap:butt;stroke-linejoin:miter;stroke-opacity:1"
       d="m 115.89552,123.39246 -18.079391,0.65059 -0.429982,16.17869 17.594803,1.65953 z m -7.86134,2.29877 c 3.22897,0.0135 6.1984,0.39626 6.1984,0.39626 0,0 0.009,4.72307 -0.0851,6.93958 -0.0942,2.21646 -0.4807,6.35957 -0.4807,6.35957 0,0 -5.39853,-0.19617 -7.8083,-0.40768 -2.40975,-0.2115 -6.650224,-0.86166 -6.650224,-0.86166 0,0 -0.774398,-1.80999 -0.675023,-6.49923 0.09936,-4.68926 0.881031,-5.25497 0.881031,-5.25497 0,0 3.516746,-0.53098 7.228476,-0.65288 0.46398,-0.0152 0.93013,-0.0209 1.3914,-0.0189 z"
       inkscape:export-xdpi="94.074028"
       inkscape:export-ydpi="94.074028" />
    <path
       style="fill:#000000;stroke:none;stroke-width:0.394082px;stroke-linecap:butt;stroke-linejoin:miter;stroke-opacity:1"
       d="m 116.0993,123.38945 -0.92409,18.47576 2.08317,0.0263 3.08297,-1.80026 0.1086,-1.17466 1.99477,-0.90388 1.02609,-9.00923 -3.71454,-0.85361 c 0,0 -0.081,-1.09425 -0.26238,-2.12723 -0.14272,-0.81295 -0.65597,-1.61037 -0.98281,-1.95191 -0.7421,-0.77548 -2.4118,-0.68146 -2.4118,-0.68146 z"
       id="path1802"
       sodipodi:nodetypes="ccccccccssc"
       inkscape:export-xdpi="94.074028"
       inkscape:export-ydpi="94.074028" />
    <path
       id="path1804"
       style="fill:#000000;stroke:none;stroke-width:0.394081px;stroke-linecap:butt;stroke-linejoin:miter;stroke-opacity:1"
       d="m 93.911402,148.70333 -5.307966,5.13407 24.427344,5.9949 3.95867,-6.29486 z m 0.282849,0.89182 15.154329,3.34484 -2.7164,3.83877 -15.953848,-3.45515 z m 16.538019,3.69129 4.25937,1.04676 -2.30678,3.90508 -4.6002,-1.16824 z"
       inkscape:export-xdpi="94.074028"
       inkscape:export-ydpi="94.074028" />
    <g
       id="g1824"
       transform="matrix(0.77871904,0,0,0.75757171,-516.06957,-407.05095)"
       inkscape:export-xdpi="94.074028"
       inkscape:export-ydpi="94.074028"
       inkscape:export-filename="/home/filipemosca/Github/moxknet.github.io/img/logo/moxknet-logo.svg.png">
      <ellipse
         style="opacity:1;fill:#550000;fill-opacity:1;stroke-width:0.191517"
         id="ellipse1806"
         cx="680.04541"
         cy="861.13989"
         rx="5.0688415"
         ry="5.8238406"
         transform="matrix(0.98070628,-0.19548706,0.14072002,0.99004943,0,0)" />
      <ellipse
         style="opacity:1;fill:#ffffff;fill-opacity:1;stroke:#000000;stroke-width:1.30171;stroke-linejoin:round;stroke-miterlimit:4;stroke-dasharray:none;stroke-opacity:1"
         id="ellipse1808"
         cx="1098.3619"
         cy="-366.94614"
         rx="7.4563751"
         ry="17.800138"
         transform="matrix(0.44607283,0.89499666,-0.75427533,0.65655825,0,0)" />
      <path
         style="fill:none;stroke:#000000;stroke-width:1.665;stroke-linecap:butt;stroke-linejoin:miter;stroke-miterlimit:4;stroke-dasharray:none;stroke-opacity:1"
         d="m 777.74424,730.46856 -17.7935,19.0897"
         id="path1810"
         sodipodi:nodetypes="cc" />
      <path
         style="opacity:1;fill:none;stroke:#4f4f4f;stroke-width:2.41649;stroke-linecap:butt;stroke-linejoin:miter;stroke-miterlimit:4;stroke-dasharray:none;stroke-opacity:1"
         d="m 782.6267,733.59956 11.8464,13.74812 8.15863,-4.70447"
         id="path1812"
         sodipodi:nodetypes="ccc" />
      <ellipse
         style="opacity:1;fill:#000000;fill-opacity:1;stroke-width:0.208642"
         id="ellipse1814"
         cx="682.4317"
         cy="875.2442"
         rx="9.1514788"
         ry="10.784845"
         transform="matrix(0.97890449,-0.20431836,0.13450745,0.99091258,0,0)" />
      <ellipse
         style="opacity:1;fill:#000000;fill-opacity:1;stroke-width:0.251129"
         id="ellipse1816"
         cx="982.64581"
         cy="463.66281"
         rx="12.531292"
         ry="15.166716"
         transform="matrix(0.94955573,0.31359835,-0.33901782,0.94077995,0,0)" />
      <ellipse
         style="opacity:1;fill:#800000;fill-opacity:1;stroke-width:0.236197"
         id="ellipse1818"
         cx="700.48706"
         cy="885.88495"
         rx="5.9893608"
         ry="7.1833453"
         transform="matrix(0.97519126,-0.22136399,0.12385233,0.99230066,0,0)" />
      <ellipse
         style="opacity:1;fill:#ffffff;fill-opacity:1;stroke:#000000;stroke-width:1.58;stroke-linejoin:round;stroke-miterlimit:4;stroke-dasharray:none;stroke-opacity:1"
         id="ellipse1820"
         cx="950.66827"
         cy="619.05524"
         rx="9.6039753"
         ry="20.360609"
         transform="matrix(0.98697319,0.16088482,-0.25854195,0.96600003,0,0)" />
      <path
         style="fill:none;stroke:#000000;stroke-width:1.865;stroke-linecap:butt;stroke-linejoin:miter;stroke-miterlimit:4;stroke-dasharray:none;stroke-opacity:1"
         d="m 782.49044,731.39526 -7.61673,31.62153"
         id="path1822"
         sodipodi:nodetypes="cc" />
    </g>
  </g>
</svg>
